# xmcd CD database file
#
# Track frame offsets:
#	150
#	12325
#	28470
#	39710
#	51947
#	63437
#	75440
#	87217
#	99302
#	112882
#	123620
#	135660
#	147672
#	159350
#	176105
#	186982
#	196442
#	208977
#	218370
#	232057
#	243922
#	259390
#	273775
#	285562
#	295150
#	307032
#
# Disc length: 4287 seconds
#
# Revision: 0
# Processed by: cddbd v1.5.2PL0 Copyright (c) Steve Scherf et al.
# Submitted via: CDex 1.70beta2
#
DISCID=8a10bd1a
DTITLE=Jones Classic Country - Jones Classic Country CCC-610
DYEAR=0000
DGENRE=Country
TTITLE0=Elvis Presley/I Want You, I Need You, I Love You
TTITLE1=Billy Jo Spears/Blanket On The Ground
TTITLE2=Charley Pride/I Know One
TTITLE3=Eddy Arnold/Make The World Go Away
TTITLE4=Marty Robbins/Begging To You
TTITLE5=Tennessee Ernie Ford/Sixteen Tons
TTITLE6=Jim Reeves/Adios Amigo
TTITLE7=Porter Wagoner and Dolly Parton/Last Thing On My Mind
TTITLE8=George Jones and Tammy Wynette/We're Gonna Hold On
TTITLE9=Lefty Frizzell/Give Me More, More, More (Of Your Kisses)
TTITLE10=Ned Miller/Do What You Do Do Well
TTITLE11=Charley Pride/Wonder Could I Live There Anymore
TTITLE12=Don Gibson/Oh Lonesome Me
TTITLE13=Ray Charles/Georgia On My Mind
TTITLE14=Merle Haggard/Old Man From The Mountains
TTITLE15=Everly Brothers/Wake Up Little Susie
TTITLE16=Buck Owens/Under Your Spell Again
TTITLE17=Tommy Collins/If You Can't Bite, Don't Growl
TTITLE18=Glen Campbell/Honey Come Back
TTITLE19=Wanda Jackson/In the Middle Of A Heartache
TTITLE20=Tammy Wynette/You And Me
TTITLE21=George Jones/Grand Tour
TTITLE22=Sonny James/Young Love
TTITLE23=Flatt and Scruggs/Ballad Of Jed Clampett
TTITLE24=Kitty Wells/Password
TTITLE25=Olivia Newton-John/If You Love Me (Let Me Know)
EXTD=YEAR: 0000
EXTT0=
EXTT1=
EXTT2=
EXTT3=
EXTT4=
EXTT5=
EXTT6=
EXTT7=
EXTT8=
EXTT9=
EXTT10=
EXTT11=
EXTT12=
EXTT13=
EXTT14=
EXTT15=
EXTT16=
EXTT17=
EXTT18=
EXTT19=
EXTT20=
EXTT21=
EXTT22=
EXTT23=
EXTT24=
EXTT25=
PLAYORDER=
